<mxfile host="app.diagrams.net" modified="2024-05-24T11:41:27.374Z" agent="Mozilla/5.0 (X11; Linux x86_64) AppleWebKit/537.36 (KHTML, like Gecko) Chrome/123.0.0.0 Safari/537.36" etag="ImWEJX0I7YXlTTmpsCBE" version="24.4.7" type="github">
  <diagram name="Seite-1" id="zLVV_eKc7MSiDJDmLtzi">
    <mxGraphModel dx="1978" dy="1751" grid="0" gridSize="10" guides="1" tooltips="1" connect="1" arrows="1" fold="1" page="1" pageScale="1" pageWidth="100000000" pageHeight="100000000" math="0" shadow="0">
      <root>
        <mxCell id="0" />
        <mxCell id="1" parent="0" />
        <mxCell id="GSjYGcbKK9BM40WnQwez-16" value="API" style="rounded=0;whiteSpace=wrap;html=1;align=left;fontStyle=1;fontSize=36;verticalAlign=top;spacing=24;" vertex="1" parent="1">
          <mxGeometry x="30090" y="21122" width="551" height="394" as="geometry" />
        </mxCell>
        <mxCell id="GSjYGcbKK9BM40WnQwez-12" value="Frontend Services" style="rounded=0;whiteSpace=wrap;html=1;align=left;fontStyle=1;fontSize=36;verticalAlign=top;spacing=24;" vertex="1" parent="1">
          <mxGeometry x="30088" y="20568" width="551" height="534" as="geometry" />
        </mxCell>
        <mxCell id="GSjYGcbKK9BM40WnQwez-11" value="Backend Services" style="rounded=0;whiteSpace=wrap;html=1;align=left;fontStyle=1;fontSize=36;verticalAlign=top;spacing=24;" vertex="1" parent="1">
          <mxGeometry x="30090" y="21551" width="551" height="534" as="geometry" />
        </mxCell>
        <mxCell id="zLm2Q9h4xRQoBPKhVe6s-1" value="STORAGE" style="rounded=0;whiteSpace=wrap;html=1;align=left;fontStyle=1;fontSize=36;verticalAlign=top;spacing=24;" parent="1" vertex="1">
          <mxGeometry x="30090" y="22126" width="551" height="284" as="geometry" />
        </mxCell>
        <mxCell id="_RebnMUbpeD7XwFzTjEb-13" value="" style="group" parent="1" vertex="1" connectable="0">
          <mxGeometry x="30168.5" y="19681" width="375" height="667" as="geometry" />
        </mxCell>
        <mxCell id="_RebnMUbpeD7XwFzTjEb-12" value="" style="group" parent="_RebnMUbpeD7XwFzTjEb-13" vertex="1" connectable="0">
          <mxGeometry width="375" height="667" as="geometry" />
        </mxCell>
        <mxCell id="_RebnMUbpeD7XwFzTjEb-3" value="" style="rounded=0;whiteSpace=wrap;html=1;aspect=fixed;" parent="_RebnMUbpeD7XwFzTjEb-12" vertex="1">
          <mxGeometry width="375" height="667" as="geometry" />
        </mxCell>
        <mxCell id="_RebnMUbpeD7XwFzTjEb-5" value="&lt;h1 style=&quot;margin-top: 0px;&quot;&gt;Power Pong Girls&lt;/h1&gt;" style="text;html=1;whiteSpace=wrap;overflow=hidden;rounded=0;align=center;spacingTop=24;spacing=0;spacingLeft=24;spacingRight=24;spacingBottom=12;" parent="_RebnMUbpeD7XwFzTjEb-12" vertex="1">
          <mxGeometry width="375" height="70" as="geometry" />
        </mxCell>
        <mxCell id="_RebnMUbpeD7XwFzTjEb-11" value="" style="group" parent="_RebnMUbpeD7XwFzTjEb-13" vertex="1" connectable="0">
          <mxGeometry x="24" y="70" width="327" height="582" as="geometry" />
        </mxCell>
        <mxCell id="_RebnMUbpeD7XwFzTjEb-7" value="" style="rounded=0;whiteSpace=wrap;html=1;strokeWidth=4;glass=0;" parent="_RebnMUbpeD7XwFzTjEb-11" vertex="1">
          <mxGeometry width="327" height="582" as="geometry" />
        </mxCell>
        <mxCell id="_RebnMUbpeD7XwFzTjEb-4" value="Start Game" style="html=1;shadow=0;dashed=0;shape=mxgraph.bootstrap.rrect;rSize=5;strokeColor=none;strokeWidth=1;fillColor=#0085FC;fontColor=#FFFFFF;whiteSpace=wrap;align=center;verticalAlign=middle;spacingLeft=0;fontStyle=0;fontSize=16;spacing=5;" parent="_RebnMUbpeD7XwFzTjEb-11" vertex="1">
          <mxGeometry x="103.5" y="521" width="120" height="36" as="geometry" />
        </mxCell>
        <mxCell id="_RebnMUbpeD7XwFzTjEb-8" value="" style="html=1;shadow=0;dashed=0;shape=mxgraph.bootstrap.rrect;rSize=5;strokeColor=none;strokeWidth=1;fillColor=#000000;fontColor=#FFFFFF;whiteSpace=wrap;align=center;verticalAlign=middle;spacingLeft=0;fontStyle=0;fontSize=16;spacing=5;" parent="_RebnMUbpeD7XwFzTjEb-11" vertex="1">
          <mxGeometry x="103.5" y="24" width="120" height="24" as="geometry" />
        </mxCell>
        <mxCell id="_RebnMUbpeD7XwFzTjEb-9" value="" style="endArrow=none;dashed=1;html=1;rounded=1;exitX=0;exitY=0.5;exitDx=0;exitDy=0;entryX=1;entryY=0.5;entryDx=0;entryDy=0;strokeWidth=4;endSize=6;curved=0;" parent="_RebnMUbpeD7XwFzTjEb-11" source="_RebnMUbpeD7XwFzTjEb-7" target="_RebnMUbpeD7XwFzTjEb-7" edge="1">
          <mxGeometry width="50" height="50" relative="1" as="geometry">
            <mxPoint x="286" y="140" as="sourcePoint" />
            <mxPoint x="336" y="90" as="targetPoint" />
          </mxGeometry>
        </mxCell>
        <mxCell id="_RebnMUbpeD7XwFzTjEb-10" value="" style="ellipse;whiteSpace=wrap;html=1;aspect=fixed;fillColor=#3D3D3D;" parent="_RebnMUbpeD7XwFzTjEb-11" vertex="1">
          <mxGeometry x="139.5" y="461" width="48" height="48" as="geometry" />
        </mxCell>
        <mxCell id="_RebnMUbpeD7XwFzTjEb-157" style="edgeStyle=orthogonalEdgeStyle;rounded=0;orthogonalLoop=1;jettySize=auto;html=1;startArrow=classic;startFill=1;" parent="1" source="_RebnMUbpeD7XwFzTjEb-14" target="_RebnMUbpeD7XwFzTjEb-87" edge="1">
          <mxGeometry relative="1" as="geometry" />
        </mxCell>
        <mxCell id="_RebnMUbpeD7XwFzTjEb-14" value="&lt;b&gt;&lt;font color=&quot;#ffffff&quot;&gt;Backend Framework&lt;/font&gt;&lt;/b&gt;" style="swimlane;fontStyle=0;childLayout=stackLayout;horizontal=1;startSize=30;horizontalStack=0;resizeParent=1;resizeParentMax=0;resizeLast=0;collapsible=1;marginBottom=0;whiteSpace=wrap;html=1;fillColor=#262626;" parent="1" vertex="1" collapsed="1">
          <mxGeometry x="30119" y="21635" width="152" height="30" as="geometry">
            <mxRectangle x="30117" y="21272" width="140" height="120" as="alternateBounds" />
          </mxGeometry>
        </mxCell>
        <mxCell id="_RebnMUbpeD7XwFzTjEb-15" value="Django" style="text;strokeColor=none;fillColor=none;align=left;verticalAlign=middle;spacingLeft=4;spacingRight=4;overflow=hidden;points=[[0,0.5],[1,0.5]];portConstraint=eastwest;rotatable=0;whiteSpace=wrap;html=1;" parent="_RebnMUbpeD7XwFzTjEb-14" vertex="1">
          <mxGeometry y="30" width="140" height="30" as="geometry" />
        </mxCell>
        <mxCell id="_RebnMUbpeD7XwFzTjEb-16" value="Item 2" style="text;strokeColor=none;fillColor=none;align=left;verticalAlign=middle;spacingLeft=4;spacingRight=4;overflow=hidden;points=[[0,0.5],[1,0.5]];portConstraint=eastwest;rotatable=0;whiteSpace=wrap;html=1;" parent="_RebnMUbpeD7XwFzTjEb-14" vertex="1">
          <mxGeometry y="60" width="140" height="30" as="geometry" />
        </mxCell>
        <mxCell id="_RebnMUbpeD7XwFzTjEb-17" value="Item 3" style="text;strokeColor=none;fillColor=none;align=left;verticalAlign=middle;spacingLeft=4;spacingRight=4;overflow=hidden;points=[[0,0.5],[1,0.5]];portConstraint=eastwest;rotatable=0;whiteSpace=wrap;html=1;" parent="_RebnMUbpeD7XwFzTjEb-14" vertex="1">
          <mxGeometry y="90" width="140" height="30" as="geometry" />
        </mxCell>
        <mxCell id="_RebnMUbpeD7XwFzTjEb-18" value="&lt;b&gt;Frontend Framework&lt;/b&gt;" style="swimlane;fontStyle=0;childLayout=stackLayout;horizontal=1;startSize=30;horizontalStack=0;resizeParent=1;resizeParentMax=0;resizeLast=0;collapsible=1;marginBottom=0;whiteSpace=wrap;html=1;" parent="1" vertex="1">
          <mxGeometry x="30121" y="20766" width="140" height="120" as="geometry" />
        </mxCell>
        <mxCell id="_RebnMUbpeD7XwFzTjEb-19" value="Bootstrap" style="text;strokeColor=none;fillColor=none;align=left;verticalAlign=middle;spacingLeft=4;spacingRight=4;overflow=hidden;points=[[0,0.5],[1,0.5]];portConstraint=eastwest;rotatable=0;whiteSpace=wrap;html=1;" parent="_RebnMUbpeD7XwFzTjEb-18" vertex="1">
          <mxGeometry y="30" width="140" height="30" as="geometry" />
        </mxCell>
        <mxCell id="_RebnMUbpeD7XwFzTjEb-20" value="Item 2" style="text;strokeColor=none;fillColor=none;align=left;verticalAlign=middle;spacingLeft=4;spacingRight=4;overflow=hidden;points=[[0,0.5],[1,0.5]];portConstraint=eastwest;rotatable=0;whiteSpace=wrap;html=1;" parent="_RebnMUbpeD7XwFzTjEb-18" vertex="1">
          <mxGeometry y="60" width="140" height="30" as="geometry" />
        </mxCell>
        <mxCell id="_RebnMUbpeD7XwFzTjEb-21" value="Item 3" style="text;strokeColor=none;fillColor=none;align=left;verticalAlign=middle;spacingLeft=4;spacingRight=4;overflow=hidden;points=[[0,0.5],[1,0.5]];portConstraint=eastwest;rotatable=0;whiteSpace=wrap;html=1;" parent="_RebnMUbpeD7XwFzTjEb-18" vertex="1">
          <mxGeometry y="90" width="140" height="30" as="geometry" />
        </mxCell>
        <mxCell id="_RebnMUbpeD7XwFzTjEb-22" value="&lt;b&gt;Database&lt;/b&gt;" style="swimlane;fontStyle=0;childLayout=stackLayout;horizontal=1;startSize=30;horizontalStack=0;resizeParent=1;resizeParentMax=0;resizeLast=0;collapsible=1;marginBottom=0;whiteSpace=wrap;html=1;" parent="1" vertex="1">
          <mxGeometry x="30361" y="22226" width="140" height="120" as="geometry" />
        </mxCell>
        <mxCell id="_RebnMUbpeD7XwFzTjEb-23" value="PostgreSQL" style="text;strokeColor=none;fillColor=none;align=left;verticalAlign=middle;spacingLeft=4;spacingRight=4;overflow=hidden;points=[[0,0.5],[1,0.5]];portConstraint=eastwest;rotatable=0;whiteSpace=wrap;html=1;" parent="_RebnMUbpeD7XwFzTjEb-22" vertex="1">
          <mxGeometry y="30" width="140" height="30" as="geometry" />
        </mxCell>
        <mxCell id="_RebnMUbpeD7XwFzTjEb-24" value="Item 2" style="text;strokeColor=none;fillColor=none;align=left;verticalAlign=middle;spacingLeft=4;spacingRight=4;overflow=hidden;points=[[0,0.5],[1,0.5]];portConstraint=eastwest;rotatable=0;whiteSpace=wrap;html=1;" parent="_RebnMUbpeD7XwFzTjEb-22" vertex="1">
          <mxGeometry y="60" width="140" height="30" as="geometry" />
        </mxCell>
        <mxCell id="_RebnMUbpeD7XwFzTjEb-25" value="Item 3" style="text;strokeColor=none;fillColor=none;align=left;verticalAlign=middle;spacingLeft=4;spacingRight=4;overflow=hidden;points=[[0,0.5],[1,0.5]];portConstraint=eastwest;rotatable=0;whiteSpace=wrap;html=1;" parent="_RebnMUbpeD7XwFzTjEb-22" vertex="1">
          <mxGeometry y="90" width="140" height="30" as="geometry" />
        </mxCell>
        <mxCell id="_RebnMUbpeD7XwFzTjEb-27" value="&lt;b&gt;&lt;font color=&quot;#ffffff&quot;&gt;Blockchain Storage&lt;/font&gt;&lt;/b&gt;" style="swimlane;fontStyle=0;childLayout=stackLayout;horizontal=1;startSize=30;horizontalStack=0;resizeParent=1;resizeParentMax=0;resizeLast=0;collapsible=1;marginBottom=0;whiteSpace=wrap;html=1;fillColor=#262626;" parent="1" vertex="1">
          <mxGeometry x="30205" y="22226" width="140" height="120" as="geometry" />
        </mxCell>
        <mxCell id="_RebnMUbpeD7XwFzTjEb-28" value="Ethereum BC" style="text;strokeColor=none;fillColor=none;align=left;verticalAlign=middle;spacingLeft=4;spacingRight=4;overflow=hidden;points=[[0,0.5],[1,0.5]];portConstraint=eastwest;rotatable=0;whiteSpace=wrap;html=1;" parent="_RebnMUbpeD7XwFzTjEb-27" vertex="1">
          <mxGeometry y="30" width="140" height="30" as="geometry" />
        </mxCell>
        <mxCell id="_RebnMUbpeD7XwFzTjEb-29" value="Solidity" style="text;strokeColor=none;fillColor=none;align=left;verticalAlign=middle;spacingLeft=4;spacingRight=4;overflow=hidden;points=[[0,0.5],[1,0.5]];portConstraint=eastwest;rotatable=0;whiteSpace=wrap;html=1;" parent="_RebnMUbpeD7XwFzTjEb-27" vertex="1">
          <mxGeometry y="60" width="140" height="30" as="geometry" />
        </mxCell>
        <mxCell id="_RebnMUbpeD7XwFzTjEb-30" value="Store tournament score" style="text;strokeColor=none;fillColor=none;align=left;verticalAlign=middle;spacingLeft=4;spacingRight=4;overflow=hidden;points=[[0,0.5],[1,0.5]];portConstraint=eastwest;rotatable=0;whiteSpace=wrap;html=1;" parent="_RebnMUbpeD7XwFzTjEb-27" vertex="1">
          <mxGeometry y="90" width="140" height="30" as="geometry" />
        </mxCell>
        <mxCell id="_RebnMUbpeD7XwFzTjEb-31" value="&lt;font color=&quot;#ffffff&quot;&gt;&lt;b&gt;User Authentication&lt;/b&gt;&lt;/font&gt;" style="swimlane;fontStyle=0;childLayout=stackLayout;horizontal=1;startSize=30;horizontalStack=0;resizeParent=1;resizeParentMax=0;resizeLast=0;collapsible=1;marginBottom=0;whiteSpace=wrap;html=1;fillColor=#262626;" parent="1" vertex="1">
          <mxGeometry x="29611" y="20896" width="140" height="270" as="geometry" />
        </mxCell>
        <mxCell id="_RebnMUbpeD7XwFzTjEb-32" value="Std user management" style="text;strokeColor=none;fillColor=none;align=left;verticalAlign=middle;spacingLeft=4;spacingRight=4;overflow=hidden;points=[[0,0.5],[1,0.5]];portConstraint=eastwest;rotatable=0;whiteSpace=wrap;html=1;" parent="_RebnMUbpeD7XwFzTjEb-31" vertex="1">
          <mxGeometry y="30" width="140" height="30" as="geometry" />
        </mxCell>
        <mxCell id="_RebnMUbpeD7XwFzTjEb-33" value="Authentication" style="text;strokeColor=none;fillColor=none;align=left;verticalAlign=middle;spacingLeft=4;spacingRight=4;overflow=hidden;points=[[0,0.5],[1,0.5]];portConstraint=eastwest;rotatable=0;whiteSpace=wrap;html=1;" parent="_RebnMUbpeD7XwFzTjEb-31" vertex="1">
          <mxGeometry y="60" width="140" height="30" as="geometry" />
        </mxCell>
        <mxCell id="_RebnMUbpeD7XwFzTjEb-34" value="cross-tournaments" style="text;strokeColor=none;fillColor=none;align=left;verticalAlign=middle;spacingLeft=4;spacingRight=4;overflow=hidden;points=[[0,0.5],[1,0.5]];portConstraint=eastwest;rotatable=0;whiteSpace=wrap;html=1;" parent="_RebnMUbpeD7XwFzTjEb-31" vertex="1">
          <mxGeometry y="90" width="140" height="30" as="geometry" />
        </mxCell>
        <mxCell id="_RebnMUbpeD7XwFzTjEb-143" value="Registration" style="text;strokeColor=none;fillColor=none;align=left;verticalAlign=middle;spacingLeft=4;spacingRight=4;overflow=hidden;points=[[0,0.5],[1,0.5]];portConstraint=eastwest;rotatable=0;whiteSpace=wrap;html=1;" parent="_RebnMUbpeD7XwFzTjEb-31" vertex="1">
          <mxGeometry y="120" width="140" height="30" as="geometry" />
        </mxCell>
        <mxCell id="_RebnMUbpeD7XwFzTjEb-144" value="Login" style="text;strokeColor=none;fillColor=none;align=left;verticalAlign=middle;spacingLeft=4;spacingRight=4;overflow=hidden;points=[[0,0.5],[1,0.5]];portConstraint=eastwest;rotatable=0;whiteSpace=wrap;html=1;" parent="_RebnMUbpeD7XwFzTjEb-31" vertex="1">
          <mxGeometry y="150" width="140" height="30" as="geometry" />
        </mxCell>
        <mxCell id="_RebnMUbpeD7XwFzTjEb-145" value="Profile Mgmt" style="text;strokeColor=none;fillColor=none;align=left;verticalAlign=middle;spacingLeft=4;spacingRight=4;overflow=hidden;points=[[0,0.5],[1,0.5]];portConstraint=eastwest;rotatable=0;whiteSpace=wrap;html=1;" parent="_RebnMUbpeD7XwFzTjEb-31" vertex="1">
          <mxGeometry y="180" width="140" height="30" as="geometry" />
        </mxCell>
        <mxCell id="_RebnMUbpeD7XwFzTjEb-146" value="Friends / Connect" style="text;strokeColor=none;fillColor=none;align=left;verticalAlign=middle;spacingLeft=4;spacingRight=4;overflow=hidden;points=[[0,0.5],[1,0.5]];portConstraint=eastwest;rotatable=0;whiteSpace=wrap;html=1;" parent="_RebnMUbpeD7XwFzTjEb-31" vertex="1">
          <mxGeometry y="210" width="140" height="30" as="geometry" />
        </mxCell>
        <mxCell id="_RebnMUbpeD7XwFzTjEb-147" value="History" style="text;strokeColor=none;fillColor=none;align=left;verticalAlign=middle;spacingLeft=4;spacingRight=4;overflow=hidden;points=[[0,0.5],[1,0.5]];portConstraint=eastwest;rotatable=0;whiteSpace=wrap;html=1;" parent="_RebnMUbpeD7XwFzTjEb-31" vertex="1">
          <mxGeometry y="240" width="140" height="30" as="geometry" />
        </mxCell>
        <mxCell id="_RebnMUbpeD7XwFzTjEb-35" value="&lt;font color=&quot;#ffffff&quot;&gt;&lt;b&gt;Remote Authentication&lt;/b&gt;&lt;/font&gt;" style="swimlane;fontStyle=0;childLayout=stackLayout;horizontal=1;startSize=30;horizontalStack=0;resizeParent=1;resizeParentMax=0;resizeLast=0;collapsible=1;marginBottom=0;whiteSpace=wrap;html=1;fillColor=#262626;" parent="1" vertex="1" collapsed="1">
          <mxGeometry x="29301" y="20795" width="166" height="30" as="geometry">
            <mxRectangle x="29869" y="21034" width="140" height="60" as="alternateBounds" />
          </mxGeometry>
        </mxCell>
        <mxCell id="_RebnMUbpeD7XwFzTjEb-36" value="OAuth with 42" style="text;strokeColor=none;fillColor=none;align=left;verticalAlign=middle;spacingLeft=4;spacingRight=4;overflow=hidden;points=[[0,0.5],[1,0.5]];portConstraint=eastwest;rotatable=0;whiteSpace=wrap;html=1;" parent="_RebnMUbpeD7XwFzTjEb-35" vertex="1">
          <mxGeometry y="30" width="140" height="30" as="geometry" />
        </mxCell>
        <mxCell id="_RebnMUbpeD7XwFzTjEb-39" value="&lt;b&gt;&lt;font color=&quot;#ffffff&quot;&gt;Remote Players&lt;/font&gt;&lt;/b&gt;" style="swimlane;fontStyle=0;childLayout=stackLayout;horizontal=1;startSize=30;horizontalStack=0;resizeParent=1;resizeParentMax=0;resizeLast=0;collapsible=1;marginBottom=0;whiteSpace=wrap;html=1;fillColor=#262626;" parent="1" vertex="1" collapsed="1">
          <mxGeometry x="29818" y="21204" width="125" height="30" as="geometry">
            <mxRectangle x="30803" y="21352" width="140" height="120" as="alternateBounds" />
          </mxGeometry>
        </mxCell>
        <mxCell id="_RebnMUbpeD7XwFzTjEb-40" value="Item 1" style="text;strokeColor=none;fillColor=none;align=left;verticalAlign=middle;spacingLeft=4;spacingRight=4;overflow=hidden;points=[[0,0.5],[1,0.5]];portConstraint=eastwest;rotatable=0;whiteSpace=wrap;html=1;" parent="_RebnMUbpeD7XwFzTjEb-39" vertex="1">
          <mxGeometry y="30" width="140" height="30" as="geometry" />
        </mxCell>
        <mxCell id="_RebnMUbpeD7XwFzTjEb-41" value="Item 2" style="text;strokeColor=none;fillColor=none;align=left;verticalAlign=middle;spacingLeft=4;spacingRight=4;overflow=hidden;points=[[0,0.5],[1,0.5]];portConstraint=eastwest;rotatable=0;whiteSpace=wrap;html=1;" parent="_RebnMUbpeD7XwFzTjEb-39" vertex="1">
          <mxGeometry y="60" width="140" height="30" as="geometry" />
        </mxCell>
        <mxCell id="_RebnMUbpeD7XwFzTjEb-42" value="Item 3" style="text;strokeColor=none;fillColor=none;align=left;verticalAlign=middle;spacingLeft=4;spacingRight=4;overflow=hidden;points=[[0,0.5],[1,0.5]];portConstraint=eastwest;rotatable=0;whiteSpace=wrap;html=1;" parent="_RebnMUbpeD7XwFzTjEb-39" vertex="1">
          <mxGeometry y="90" width="140" height="30" as="geometry" />
        </mxCell>
        <mxCell id="_RebnMUbpeD7XwFzTjEb-43" value="&lt;b&gt;&lt;font color=&quot;#ffffff&quot;&gt;Multiplayer &amp;gt; 2&lt;/font&gt;&lt;/b&gt;" style="swimlane;fontStyle=0;childLayout=stackLayout;horizontal=1;startSize=30;horizontalStack=0;resizeParent=1;resizeParentMax=0;resizeLast=0;collapsible=1;marginBottom=0;whiteSpace=wrap;html=1;fillColor=#262626;" parent="1" vertex="1" collapsed="1">
          <mxGeometry x="29607" y="21204" width="119" height="30" as="geometry">
            <mxRectangle x="30592" y="21352" width="140" height="120" as="alternateBounds" />
          </mxGeometry>
        </mxCell>
        <mxCell id="_RebnMUbpeD7XwFzTjEb-44" value="Item 1" style="text;strokeColor=none;fillColor=none;align=left;verticalAlign=middle;spacingLeft=4;spacingRight=4;overflow=hidden;points=[[0,0.5],[1,0.5]];portConstraint=eastwest;rotatable=0;whiteSpace=wrap;html=1;" parent="_RebnMUbpeD7XwFzTjEb-43" vertex="1">
          <mxGeometry y="30" width="140" height="30" as="geometry" />
        </mxCell>
        <mxCell id="_RebnMUbpeD7XwFzTjEb-45" value="Item 2" style="text;strokeColor=none;fillColor=none;align=left;verticalAlign=middle;spacingLeft=4;spacingRight=4;overflow=hidden;points=[[0,0.5],[1,0.5]];portConstraint=eastwest;rotatable=0;whiteSpace=wrap;html=1;" parent="_RebnMUbpeD7XwFzTjEb-43" vertex="1">
          <mxGeometry y="60" width="140" height="30" as="geometry" />
        </mxCell>
        <mxCell id="_RebnMUbpeD7XwFzTjEb-46" value="Item 3" style="text;strokeColor=none;fillColor=none;align=left;verticalAlign=middle;spacingLeft=4;spacingRight=4;overflow=hidden;points=[[0,0.5],[1,0.5]];portConstraint=eastwest;rotatable=0;whiteSpace=wrap;html=1;" parent="_RebnMUbpeD7XwFzTjEb-43" vertex="1">
          <mxGeometry y="90" width="140" height="30" as="geometry" />
        </mxCell>
        <mxCell id="_RebnMUbpeD7XwFzTjEb-47" value="&lt;font color=&quot;#ffffff&quot;&gt;&lt;b&gt;Additional Game&lt;/b&gt;&lt;/font&gt;" style="swimlane;fontStyle=0;childLayout=stackLayout;horizontal=1;startSize=30;horizontalStack=0;resizeParent=1;resizeParentMax=0;resizeLast=0;collapsible=1;marginBottom=0;whiteSpace=wrap;html=1;fillColor=#262626;" parent="1" vertex="1">
          <mxGeometry x="29332" y="20311" width="140" height="150" as="geometry" />
        </mxCell>
        <mxCell id="_RebnMUbpeD7XwFzTjEb-48" value="New Game Principle" style="text;strokeColor=none;fillColor=none;align=left;verticalAlign=middle;spacingLeft=4;spacingRight=4;overflow=hidden;points=[[0,0.5],[1,0.5]];portConstraint=eastwest;rotatable=0;whiteSpace=wrap;html=1;" parent="_RebnMUbpeD7XwFzTjEb-47" vertex="1">
          <mxGeometry y="30" width="140" height="30" as="geometry" />
        </mxCell>
        <mxCell id="_RebnMUbpeD7XwFzTjEb-49" value="Matchmaking" style="text;strokeColor=none;fillColor=none;align=left;verticalAlign=middle;spacingLeft=4;spacingRight=4;overflow=hidden;points=[[0,0.5],[1,0.5]];portConstraint=eastwest;rotatable=0;whiteSpace=wrap;html=1;" parent="_RebnMUbpeD7XwFzTjEb-47" vertex="1">
          <mxGeometry y="60" width="140" height="30" as="geometry" />
        </mxCell>
        <mxCell id="_RebnMUbpeD7XwFzTjEb-50" value="History" style="text;strokeColor=none;fillColor=none;align=left;verticalAlign=middle;spacingLeft=4;spacingRight=4;overflow=hidden;points=[[0,0.5],[1,0.5]];portConstraint=eastwest;rotatable=0;whiteSpace=wrap;html=1;" parent="_RebnMUbpeD7XwFzTjEb-47" vertex="1">
          <mxGeometry y="90" width="140" height="30" as="geometry" />
        </mxCell>
        <mxCell id="_RebnMUbpeD7XwFzTjEb-152" value="Persistent Storage" style="text;strokeColor=none;fillColor=none;align=left;verticalAlign=middle;spacingLeft=4;spacingRight=4;overflow=hidden;points=[[0,0.5],[1,0.5]];portConstraint=eastwest;rotatable=0;whiteSpace=wrap;html=1;" parent="_RebnMUbpeD7XwFzTjEb-47" vertex="1">
          <mxGeometry y="120" width="140" height="30" as="geometry" />
        </mxCell>
        <mxCell id="_RebnMUbpeD7XwFzTjEb-51" value="&lt;b&gt;Customization&lt;/b&gt;" style="swimlane;fontStyle=0;childLayout=stackLayout;horizontal=1;startSize=30;horizontalStack=0;resizeParent=1;resizeParentMax=0;resizeLast=0;collapsible=1;marginBottom=0;whiteSpace=wrap;html=1;" parent="1" vertex="1" collapsed="1">
          <mxGeometry x="30121" y="21030" width="118" height="30" as="geometry">
            <mxRectangle x="30405" y="20743" width="140" height="150" as="alternateBounds" />
          </mxGeometry>
        </mxCell>
        <mxCell id="_RebnMUbpeD7XwFzTjEb-52" value="User can choose" style="text;strokeColor=none;fillColor=none;align=left;verticalAlign=middle;spacingLeft=4;spacingRight=4;overflow=hidden;points=[[0,0.5],[1,0.5]];portConstraint=eastwest;rotatable=0;whiteSpace=wrap;html=1;" parent="_RebnMUbpeD7XwFzTjEb-51" vertex="1">
          <mxGeometry y="30" width="140" height="30" as="geometry" />
        </mxCell>
        <mxCell id="_RebnMUbpeD7XwFzTjEb-53" value="Themes / Features" style="text;strokeColor=none;fillColor=none;align=left;verticalAlign=middle;spacingLeft=4;spacingRight=4;overflow=hidden;points=[[0,0.5],[1,0.5]];portConstraint=eastwest;rotatable=0;whiteSpace=wrap;html=1;" parent="_RebnMUbpeD7XwFzTjEb-51" vertex="1">
          <mxGeometry y="60" width="140" height="30" as="geometry" />
        </mxCell>
        <mxCell id="_RebnMUbpeD7XwFzTjEb-54" value="Applicipal on all games" style="text;strokeColor=none;fillColor=none;align=left;verticalAlign=middle;spacingLeft=4;spacingRight=4;overflow=hidden;points=[[0,0.5],[1,0.5]];portConstraint=eastwest;rotatable=0;whiteSpace=wrap;html=1;" parent="_RebnMUbpeD7XwFzTjEb-51" vertex="1">
          <mxGeometry y="90" width="140" height="30" as="geometry" />
        </mxCell>
        <mxCell id="_RebnMUbpeD7XwFzTjEb-153" value="Introduce Menu / Settings" style="text;strokeColor=none;fillColor=none;align=left;verticalAlign=middle;spacingLeft=4;spacingRight=4;overflow=hidden;points=[[0,0.5],[1,0.5]];portConstraint=eastwest;rotatable=0;whiteSpace=wrap;html=1;" parent="_RebnMUbpeD7XwFzTjEb-51" vertex="1">
          <mxGeometry y="120" width="140" height="30" as="geometry" />
        </mxCell>
        <mxCell id="_RebnMUbpeD7XwFzTjEb-55" value="&lt;b&gt;&lt;font color=&quot;#ffffff&quot;&gt;Live Chat&lt;/font&gt;&lt;/b&gt;" style="swimlane;fontStyle=0;childLayout=stackLayout;horizontal=1;startSize=30;horizontalStack=0;resizeParent=1;resizeParentMax=0;resizeLast=0;collapsible=1;marginBottom=0;whiteSpace=wrap;html=1;fillColor=#262626;" parent="1" vertex="1">
          <mxGeometry x="29813" y="20654" width="140" height="180" as="geometry">
            <mxRectangle x="29707" y="20795" width="89" height="30" as="alternateBounds" />
          </mxGeometry>
        </mxCell>
        <mxCell id="_RebnMUbpeD7XwFzTjEb-56" value="Direct Messaging" style="text;strokeColor=none;fillColor=none;align=left;verticalAlign=middle;spacingLeft=4;spacingRight=4;overflow=hidden;points=[[0,0.5],[1,0.5]];portConstraint=eastwest;rotatable=0;whiteSpace=wrap;html=1;" parent="_RebnMUbpeD7XwFzTjEb-55" vertex="1">
          <mxGeometry y="30" width="140" height="30" as="geometry" />
        </mxCell>
        <mxCell id="_RebnMUbpeD7XwFzTjEb-57" value="Blocking" style="text;strokeColor=none;fillColor=none;align=left;verticalAlign=middle;spacingLeft=4;spacingRight=4;overflow=hidden;points=[[0,0.5],[1,0.5]];portConstraint=eastwest;rotatable=0;whiteSpace=wrap;html=1;" parent="_RebnMUbpeD7XwFzTjEb-55" vertex="1">
          <mxGeometry y="60" width="140" height="30" as="geometry" />
        </mxCell>
        <mxCell id="_RebnMUbpeD7XwFzTjEb-58" value="Invite to game" style="text;strokeColor=none;fillColor=none;align=left;verticalAlign=middle;spacingLeft=4;spacingRight=4;overflow=hidden;points=[[0,0.5],[1,0.5]];portConstraint=eastwest;rotatable=0;whiteSpace=wrap;html=1;" parent="_RebnMUbpeD7XwFzTjEb-55" vertex="1">
          <mxGeometry y="90" width="140" height="30" as="geometry" />
        </mxCell>
        <mxCell id="_RebnMUbpeD7XwFzTjEb-160" value="Access profiles" style="text;strokeColor=none;fillColor=none;align=left;verticalAlign=middle;spacingLeft=4;spacingRight=4;overflow=hidden;points=[[0,0.5],[1,0.5]];portConstraint=eastwest;rotatable=0;whiteSpace=wrap;html=1;" parent="_RebnMUbpeD7XwFzTjEb-55" vertex="1">
          <mxGeometry y="120" width="140" height="30" as="geometry" />
        </mxCell>
        <mxCell id="_RebnMUbpeD7XwFzTjEb-161" value="Game Announcement (in tournament)" style="text;strokeColor=none;fillColor=none;align=left;verticalAlign=middle;spacingLeft=4;spacingRight=4;overflow=hidden;points=[[0,0.5],[1,0.5]];portConstraint=eastwest;rotatable=0;whiteSpace=wrap;html=1;" parent="_RebnMUbpeD7XwFzTjEb-55" vertex="1">
          <mxGeometry y="150" width="140" height="30" as="geometry" />
        </mxCell>
        <mxCell id="_RebnMUbpeD7XwFzTjEb-59" value="&lt;b&gt;&lt;font color=&quot;#ffffff&quot;&gt;Artifical Intelligence&lt;/font&gt;&lt;/b&gt;" style="swimlane;fontStyle=0;childLayout=stackLayout;horizontal=1;startSize=30;horizontalStack=0;resizeParent=1;resizeParentMax=0;resizeLast=0;collapsible=1;marginBottom=0;whiteSpace=wrap;html=1;fillColor=#262626;" parent="1" vertex="1">
          <mxGeometry x="29607" y="21288" width="140" height="150" as="geometry" />
        </mxCell>
        <mxCell id="_RebnMUbpeD7XwFzTjEb-60" value="Develop AI" style="text;strokeColor=none;fillColor=none;align=left;verticalAlign=middle;spacingLeft=4;spacingRight=4;overflow=hidden;points=[[0,0.5],[1,0.5]];portConstraint=eastwest;rotatable=0;whiteSpace=wrap;html=1;" parent="_RebnMUbpeD7XwFzTjEb-59" vertex="1">
          <mxGeometry y="30" width="140" height="30" as="geometry" />
        </mxCell>
        <mxCell id="_RebnMUbpeD7XwFzTjEb-61" value="Replicate Human" style="text;strokeColor=none;fillColor=none;align=left;verticalAlign=middle;spacingLeft=4;spacingRight=4;overflow=hidden;points=[[0,0.5],[1,0.5]];portConstraint=eastwest;rotatable=0;whiteSpace=wrap;html=1;" parent="_RebnMUbpeD7XwFzTjEb-59" vertex="1">
          <mxGeometry y="60" width="140" height="30" as="geometry" />
        </mxCell>
        <mxCell id="_RebnMUbpeD7XwFzTjEb-62" value="Simulate Key Input" style="text;strokeColor=none;fillColor=none;align=left;verticalAlign=middle;spacingLeft=4;spacingRight=4;overflow=hidden;points=[[0,0.5],[1,0.5]];portConstraint=eastwest;rotatable=0;whiteSpace=wrap;html=1;" parent="_RebnMUbpeD7XwFzTjEb-59" vertex="1">
          <mxGeometry y="90" width="140" height="30" as="geometry" />
        </mxCell>
        <mxCell id="_RebnMUbpeD7XwFzTjEb-163" value="Not A* Algorithms" style="text;strokeColor=none;fillColor=none;align=left;verticalAlign=middle;spacingLeft=4;spacingRight=4;overflow=hidden;points=[[0,0.5],[1,0.5]];portConstraint=eastwest;rotatable=0;whiteSpace=wrap;html=1;" parent="_RebnMUbpeD7XwFzTjEb-59" vertex="1">
          <mxGeometry y="120" width="140" height="30" as="geometry" />
        </mxCell>
        <mxCell id="GSjYGcbKK9BM40WnQwez-4" style="edgeStyle=orthogonalEdgeStyle;rounded=0;orthogonalLoop=1;jettySize=auto;html=1;" edge="1" parent="1" source="_RebnMUbpeD7XwFzTjEb-63" target="_RebnMUbpeD7XwFzTjEb-31">
          <mxGeometry relative="1" as="geometry" />
        </mxCell>
        <mxCell id="_RebnMUbpeD7XwFzTjEb-63" value="&lt;b&gt;Dashboard&lt;/b&gt;" style="swimlane;fontStyle=0;childLayout=stackLayout;horizontal=1;startSize=30;horizontalStack=0;resizeParent=1;resizeParentMax=0;resizeLast=0;collapsible=1;marginBottom=0;whiteSpace=wrap;html=1;" parent="1" vertex="1">
          <mxGeometry x="29815" y="20905" width="140" height="120" as="geometry" />
        </mxCell>
        <mxCell id="_RebnMUbpeD7XwFzTjEb-64" value="User Stats" style="text;strokeColor=none;fillColor=none;align=left;verticalAlign=middle;spacingLeft=4;spacingRight=4;overflow=hidden;points=[[0,0.5],[1,0.5]];portConstraint=eastwest;rotatable=0;whiteSpace=wrap;html=1;" parent="_RebnMUbpeD7XwFzTjEb-63" vertex="1">
          <mxGeometry y="30" width="140" height="30" as="geometry" />
        </mxCell>
        <mxCell id="_RebnMUbpeD7XwFzTjEb-65" value="Game Stats" style="text;strokeColor=none;fillColor=none;align=left;verticalAlign=middle;spacingLeft=4;spacingRight=4;overflow=hidden;points=[[0,0.5],[1,0.5]];portConstraint=eastwest;rotatable=0;whiteSpace=wrap;html=1;" parent="_RebnMUbpeD7XwFzTjEb-63" vertex="1">
          <mxGeometry y="60" width="140" height="30" as="geometry" />
        </mxCell>
        <mxCell id="_RebnMUbpeD7XwFzTjEb-66" value="Graphs &amp;amp; Charts" style="text;strokeColor=none;fillColor=none;align=left;verticalAlign=middle;spacingLeft=4;spacingRight=4;overflow=hidden;points=[[0,0.5],[1,0.5]];portConstraint=eastwest;rotatable=0;whiteSpace=wrap;html=1;" parent="_RebnMUbpeD7XwFzTjEb-63" vertex="1">
          <mxGeometry y="90" width="140" height="30" as="geometry" />
        </mxCell>
        <mxCell id="_RebnMUbpeD7XwFzTjEb-67" value="&lt;b&gt;&lt;font color=&quot;#ffffff&quot;&gt;WAF/ModSecurity&lt;/font&gt;&lt;/b&gt;" style="swimlane;fontStyle=0;childLayout=stackLayout;horizontal=1;startSize=30;horizontalStack=0;resizeParent=1;resizeParentMax=0;resizeLast=0;collapsible=1;marginBottom=0;whiteSpace=wrap;html=1;fillColor=#262626;" parent="1" vertex="1">
          <mxGeometry x="29589" y="21533" width="140" height="120" as="geometry" />
        </mxCell>
        <mxCell id="_RebnMUbpeD7XwFzTjEb-68" value="Item 1" style="text;strokeColor=none;fillColor=none;align=left;verticalAlign=middle;spacingLeft=4;spacingRight=4;overflow=hidden;points=[[0,0.5],[1,0.5]];portConstraint=eastwest;rotatable=0;whiteSpace=wrap;html=1;" parent="_RebnMUbpeD7XwFzTjEb-67" vertex="1">
          <mxGeometry y="30" width="140" height="30" as="geometry" />
        </mxCell>
        <mxCell id="_RebnMUbpeD7XwFzTjEb-69" value="Item 2" style="text;strokeColor=none;fillColor=none;align=left;verticalAlign=middle;spacingLeft=4;spacingRight=4;overflow=hidden;points=[[0,0.5],[1,0.5]];portConstraint=eastwest;rotatable=0;whiteSpace=wrap;html=1;" parent="_RebnMUbpeD7XwFzTjEb-67" vertex="1">
          <mxGeometry y="60" width="140" height="30" as="geometry" />
        </mxCell>
        <mxCell id="_RebnMUbpeD7XwFzTjEb-70" value="Item 3" style="text;strokeColor=none;fillColor=none;align=left;verticalAlign=middle;spacingLeft=4;spacingRight=4;overflow=hidden;points=[[0,0.5],[1,0.5]];portConstraint=eastwest;rotatable=0;whiteSpace=wrap;html=1;" parent="_RebnMUbpeD7XwFzTjEb-67" vertex="1">
          <mxGeometry y="90" width="140" height="30" as="geometry" />
        </mxCell>
        <mxCell id="GSjYGcbKK9BM40WnQwez-26" style="edgeStyle=orthogonalEdgeStyle;rounded=0;orthogonalLoop=1;jettySize=auto;html=1;exitX=0.75;exitY=0;exitDx=0;exitDy=0;" edge="1" parent="1" source="_RebnMUbpeD7XwFzTjEb-71" target="_RebnMUbpeD7XwFzTjEb-31">
          <mxGeometry relative="1" as="geometry" />
        </mxCell>
        <mxCell id="_RebnMUbpeD7XwFzTjEb-71" value="&lt;b&gt;GDPR&lt;/b&gt;" style="swimlane;fontStyle=0;childLayout=stackLayout;horizontal=1;startSize=30;horizontalStack=0;resizeParent=1;resizeParentMax=0;resizeLast=0;collapsible=1;marginBottom=0;whiteSpace=wrap;html=1;" parent="1" vertex="1" collapsed="1">
          <mxGeometry x="29301" y="21149" width="70" height="30" as="geometry">
            <mxRectangle x="29301" y="21149" width="140" height="60" as="alternateBounds" />
          </mxGeometry>
        </mxCell>
        <mxCell id="_RebnMUbpeD7XwFzTjEb-74" value="Item 3" style="text;strokeColor=none;fillColor=none;align=left;verticalAlign=middle;spacingLeft=4;spacingRight=4;overflow=hidden;points=[[0,0.5],[1,0.5]];portConstraint=eastwest;rotatable=0;whiteSpace=wrap;html=1;" parent="_RebnMUbpeD7XwFzTjEb-71" vertex="1">
          <mxGeometry y="30" width="140" height="30" as="geometry" />
        </mxCell>
        <mxCell id="GSjYGcbKK9BM40WnQwez-3" style="edgeStyle=orthogonalEdgeStyle;rounded=0;orthogonalLoop=1;jettySize=auto;html=1;" edge="1" parent="1" source="_RebnMUbpeD7XwFzTjEb-75" target="_RebnMUbpeD7XwFzTjEb-31">
          <mxGeometry relative="1" as="geometry" />
        </mxCell>
        <mxCell id="_RebnMUbpeD7XwFzTjEb-75" value="&lt;b&gt;&lt;font color=&quot;#ffffff&quot;&gt;2FA&lt;/font&gt;&lt;/b&gt;" style="swimlane;fontStyle=0;childLayout=stackLayout;horizontal=1;startSize=30;horizontalStack=0;resizeParent=1;resizeParentMax=0;resizeLast=0;collapsible=1;marginBottom=0;whiteSpace=wrap;html=1;fillColor=#262626;" parent="1" vertex="1">
          <mxGeometry x="29301" y="20891" width="140" height="120" as="geometry" />
        </mxCell>
        <mxCell id="_RebnMUbpeD7XwFzTjEb-76" value="Item 1" style="text;strokeColor=none;fillColor=none;align=left;verticalAlign=middle;spacingLeft=4;spacingRight=4;overflow=hidden;points=[[0,0.5],[1,0.5]];portConstraint=eastwest;rotatable=0;whiteSpace=wrap;html=1;" parent="_RebnMUbpeD7XwFzTjEb-75" vertex="1">
          <mxGeometry y="30" width="140" height="30" as="geometry" />
        </mxCell>
        <mxCell id="_RebnMUbpeD7XwFzTjEb-77" value="Item 2" style="text;strokeColor=none;fillColor=none;align=left;verticalAlign=middle;spacingLeft=4;spacingRight=4;overflow=hidden;points=[[0,0.5],[1,0.5]];portConstraint=eastwest;rotatable=0;whiteSpace=wrap;html=1;" parent="_RebnMUbpeD7XwFzTjEb-75" vertex="1">
          <mxGeometry y="60" width="140" height="30" as="geometry" />
        </mxCell>
        <mxCell id="_RebnMUbpeD7XwFzTjEb-78" value="Item 3" style="text;strokeColor=none;fillColor=none;align=left;verticalAlign=middle;spacingLeft=4;spacingRight=4;overflow=hidden;points=[[0,0.5],[1,0.5]];portConstraint=eastwest;rotatable=0;whiteSpace=wrap;html=1;" parent="_RebnMUbpeD7XwFzTjEb-75" vertex="1">
          <mxGeometry y="90" width="140" height="30" as="geometry" />
        </mxCell>
        <mxCell id="_RebnMUbpeD7XwFzTjEb-79" value="&lt;b&gt;&lt;font color=&quot;#ffffff&quot;&gt;Log Management&lt;/font&gt;&lt;/b&gt;" style="swimlane;fontStyle=0;childLayout=stackLayout;horizontal=1;startSize=30;horizontalStack=0;resizeParent=1;resizeParentMax=0;resizeLast=0;collapsible=1;marginBottom=0;whiteSpace=wrap;html=1;fillColor=#262626;" parent="1" vertex="1">
          <mxGeometry x="30123" y="21789" width="140" height="120" as="geometry" />
        </mxCell>
        <mxCell id="_RebnMUbpeD7XwFzTjEb-80" value="Item 1" style="text;strokeColor=none;fillColor=none;align=left;verticalAlign=middle;spacingLeft=4;spacingRight=4;overflow=hidden;points=[[0,0.5],[1,0.5]];portConstraint=eastwest;rotatable=0;whiteSpace=wrap;html=1;" parent="_RebnMUbpeD7XwFzTjEb-79" vertex="1">
          <mxGeometry y="30" width="140" height="30" as="geometry" />
        </mxCell>
        <mxCell id="_RebnMUbpeD7XwFzTjEb-81" value="Item 2" style="text;strokeColor=none;fillColor=none;align=left;verticalAlign=middle;spacingLeft=4;spacingRight=4;overflow=hidden;points=[[0,0.5],[1,0.5]];portConstraint=eastwest;rotatable=0;whiteSpace=wrap;html=1;" parent="_RebnMUbpeD7XwFzTjEb-79" vertex="1">
          <mxGeometry y="60" width="140" height="30" as="geometry" />
        </mxCell>
        <mxCell id="_RebnMUbpeD7XwFzTjEb-82" value="Item 3" style="text;strokeColor=none;fillColor=none;align=left;verticalAlign=middle;spacingLeft=4;spacingRight=4;overflow=hidden;points=[[0,0.5],[1,0.5]];portConstraint=eastwest;rotatable=0;whiteSpace=wrap;html=1;" parent="_RebnMUbpeD7XwFzTjEb-79" vertex="1">
          <mxGeometry y="90" width="140" height="30" as="geometry" />
        </mxCell>
        <mxCell id="_RebnMUbpeD7XwFzTjEb-87" value="&lt;b&gt;&lt;font color=&quot;#ffffff&quot;&gt;Microservice Archit.&lt;/font&gt;&lt;/b&gt;" style="swimlane;fontStyle=0;childLayout=stackLayout;horizontal=1;startSize=30;horizontalStack=0;resizeParent=1;resizeParentMax=0;resizeLast=0;collapsible=1;marginBottom=0;whiteSpace=wrap;html=1;fillColor=#262626;" parent="1" vertex="1" collapsed="1">
          <mxGeometry x="30326" y="21635" width="149" height="30" as="geometry">
            <mxRectangle x="30324" y="21272" width="140" height="120" as="alternateBounds" />
          </mxGeometry>
        </mxCell>
        <mxCell id="_RebnMUbpeD7XwFzTjEb-88" value="Item 1" style="text;strokeColor=none;fillColor=none;align=left;verticalAlign=middle;spacingLeft=4;spacingRight=4;overflow=hidden;points=[[0,0.5],[1,0.5]];portConstraint=eastwest;rotatable=0;whiteSpace=wrap;html=1;" parent="_RebnMUbpeD7XwFzTjEb-87" vertex="1">
          <mxGeometry y="30" width="140" height="30" as="geometry" />
        </mxCell>
        <mxCell id="_RebnMUbpeD7XwFzTjEb-89" value="Item 2" style="text;strokeColor=none;fillColor=none;align=left;verticalAlign=middle;spacingLeft=4;spacingRight=4;overflow=hidden;points=[[0,0.5],[1,0.5]];portConstraint=eastwest;rotatable=0;whiteSpace=wrap;html=1;" parent="_RebnMUbpeD7XwFzTjEb-87" vertex="1">
          <mxGeometry y="60" width="140" height="30" as="geometry" />
        </mxCell>
        <mxCell id="_RebnMUbpeD7XwFzTjEb-90" value="Item 3" style="text;strokeColor=none;fillColor=none;align=left;verticalAlign=middle;spacingLeft=4;spacingRight=4;overflow=hidden;points=[[0,0.5],[1,0.5]];portConstraint=eastwest;rotatable=0;whiteSpace=wrap;html=1;" parent="_RebnMUbpeD7XwFzTjEb-87" vertex="1">
          <mxGeometry y="90" width="140" height="30" as="geometry" />
        </mxCell>
        <mxCell id="GSjYGcbKK9BM40WnQwez-10" value="STORAGE" style="rounded=0;whiteSpace=wrap;html=1;align=left;fontStyle=1;fontSize=36;verticalAlign=top;spacing=24;" vertex="1" parent="_RebnMUbpeD7XwFzTjEb-87">
          <mxGeometry x="-273" y="-56" width="551" height="284" as="geometry" />
        </mxCell>
        <mxCell id="_RebnMUbpeD7XwFzTjEb-91" value="&lt;b&gt;&lt;font color=&quot;#ffffff&quot;&gt;3D graphics&lt;/font&gt;&lt;/b&gt;" style="swimlane;fontStyle=0;childLayout=stackLayout;horizontal=1;startSize=30;horizontalStack=0;resizeParent=1;resizeParentMax=0;resizeLast=0;collapsible=1;marginBottom=0;whiteSpace=wrap;html=1;fillColor=#262626;" parent="1" vertex="1" collapsed="1">
          <mxGeometry x="30330" y="20958" width="104" height="30" as="geometry">
            <mxRectangle x="30552" y="21550" width="140" height="120" as="alternateBounds" />
          </mxGeometry>
        </mxCell>
        <mxCell id="_RebnMUbpeD7XwFzTjEb-92" value="Item 1" style="text;strokeColor=none;fillColor=none;align=left;verticalAlign=middle;spacingLeft=4;spacingRight=4;overflow=hidden;points=[[0,0.5],[1,0.5]];portConstraint=eastwest;rotatable=0;whiteSpace=wrap;html=1;" parent="_RebnMUbpeD7XwFzTjEb-91" vertex="1">
          <mxGeometry y="30" width="140" height="30" as="geometry" />
        </mxCell>
        <mxCell id="_RebnMUbpeD7XwFzTjEb-93" value="Item 2" style="text;strokeColor=none;fillColor=none;align=left;verticalAlign=middle;spacingLeft=4;spacingRight=4;overflow=hidden;points=[[0,0.5],[1,0.5]];portConstraint=eastwest;rotatable=0;whiteSpace=wrap;html=1;" parent="_RebnMUbpeD7XwFzTjEb-91" vertex="1">
          <mxGeometry y="60" width="140" height="30" as="geometry" />
        </mxCell>
        <mxCell id="_RebnMUbpeD7XwFzTjEb-94" value="Item 3" style="text;strokeColor=none;fillColor=none;align=left;verticalAlign=middle;spacingLeft=4;spacingRight=4;overflow=hidden;points=[[0,0.5],[1,0.5]];portConstraint=eastwest;rotatable=0;whiteSpace=wrap;html=1;" parent="_RebnMUbpeD7XwFzTjEb-91" vertex="1">
          <mxGeometry y="90" width="140" height="30" as="geometry" />
        </mxCell>
        <mxCell id="_RebnMUbpeD7XwFzTjEb-107" value="&lt;b&gt;Responsive / cross-device&lt;/b&gt;" style="swimlane;fontStyle=0;childLayout=stackLayout;horizontal=1;startSize=30;horizontalStack=0;resizeParent=1;resizeParentMax=0;resizeLast=0;collapsible=1;marginBottom=0;whiteSpace=wrap;html=1;" parent="1" vertex="1" collapsed="1">
          <mxGeometry x="30317" y="20766" width="186" height="30" as="geometry">
            <mxRectangle x="30430" y="21631" width="140" height="120" as="alternateBounds" />
          </mxGeometry>
        </mxCell>
        <mxCell id="_RebnMUbpeD7XwFzTjEb-108" value="Item 1" style="text;strokeColor=none;fillColor=none;align=left;verticalAlign=middle;spacingLeft=4;spacingRight=4;overflow=hidden;points=[[0,0.5],[1,0.5]];portConstraint=eastwest;rotatable=0;whiteSpace=wrap;html=1;" parent="_RebnMUbpeD7XwFzTjEb-107" vertex="1">
          <mxGeometry y="30" width="140" height="30" as="geometry" />
        </mxCell>
        <mxCell id="_RebnMUbpeD7XwFzTjEb-109" value="Item 2" style="text;strokeColor=none;fillColor=none;align=left;verticalAlign=middle;spacingLeft=4;spacingRight=4;overflow=hidden;points=[[0,0.5],[1,0.5]];portConstraint=eastwest;rotatable=0;whiteSpace=wrap;html=1;" parent="_RebnMUbpeD7XwFzTjEb-107" vertex="1">
          <mxGeometry y="60" width="140" height="30" as="geometry" />
        </mxCell>
        <mxCell id="_RebnMUbpeD7XwFzTjEb-110" value="Item 3" style="text;strokeColor=none;fillColor=none;align=left;verticalAlign=middle;spacingLeft=4;spacingRight=4;overflow=hidden;points=[[0,0.5],[1,0.5]];portConstraint=eastwest;rotatable=0;whiteSpace=wrap;html=1;" parent="_RebnMUbpeD7XwFzTjEb-107" vertex="1">
          <mxGeometry y="90" width="140" height="30" as="geometry" />
        </mxCell>
        <mxCell id="_RebnMUbpeD7XwFzTjEb-111" value="&lt;b&gt;Multi browser&lt;/b&gt;" style="swimlane;fontStyle=0;childLayout=stackLayout;horizontal=1;startSize=30;horizontalStack=0;resizeParent=1;resizeParentMax=0;resizeLast=0;collapsible=1;marginBottom=0;whiteSpace=wrap;html=1;" parent="1" vertex="1" collapsed="1">
          <mxGeometry x="30121" y="20640" width="186" height="30" as="geometry">
            <mxRectangle x="30430" y="21684" width="140" height="120" as="alternateBounds" />
          </mxGeometry>
        </mxCell>
        <mxCell id="_RebnMUbpeD7XwFzTjEb-112" value="Chromium / Chrome" style="text;strokeColor=none;fillColor=none;align=left;verticalAlign=middle;spacingLeft=4;spacingRight=4;overflow=hidden;points=[[0,0.5],[1,0.5]];portConstraint=eastwest;rotatable=0;whiteSpace=wrap;html=1;" parent="_RebnMUbpeD7XwFzTjEb-111" vertex="1">
          <mxGeometry y="30" width="140" height="30" as="geometry" />
        </mxCell>
        <mxCell id="_RebnMUbpeD7XwFzTjEb-113" value="Webkit / Safari" style="text;strokeColor=none;fillColor=none;align=left;verticalAlign=middle;spacingLeft=4;spacingRight=4;overflow=hidden;points=[[0,0.5],[1,0.5]];portConstraint=eastwest;rotatable=0;whiteSpace=wrap;html=1;" parent="_RebnMUbpeD7XwFzTjEb-111" vertex="1">
          <mxGeometry y="60" width="140" height="30" as="geometry" />
        </mxCell>
        <mxCell id="_RebnMUbpeD7XwFzTjEb-114" value="? / Firefox" style="text;strokeColor=none;fillColor=none;align=left;verticalAlign=middle;spacingLeft=4;spacingRight=4;overflow=hidden;points=[[0,0.5],[1,0.5]];portConstraint=eastwest;rotatable=0;whiteSpace=wrap;html=1;" parent="_RebnMUbpeD7XwFzTjEb-111" vertex="1">
          <mxGeometry y="90" width="140" height="30" as="geometry" />
        </mxCell>
        <mxCell id="_RebnMUbpeD7XwFzTjEb-119" value="&lt;b&gt;Localization&lt;/b&gt;" style="swimlane;fontStyle=0;childLayout=stackLayout;horizontal=1;startSize=30;horizontalStack=0;resizeParent=1;resizeParentMax=0;resizeLast=0;collapsible=1;marginBottom=0;whiteSpace=wrap;html=1;" parent="1" vertex="1" collapsed="1">
          <mxGeometry x="30263" y="21030" width="186" height="30" as="geometry">
            <mxRectangle x="30430" y="21631" width="140" height="120" as="alternateBounds" />
          </mxGeometry>
        </mxCell>
        <mxCell id="_RebnMUbpeD7XwFzTjEb-120" value="Item 1" style="text;strokeColor=none;fillColor=none;align=left;verticalAlign=middle;spacingLeft=4;spacingRight=4;overflow=hidden;points=[[0,0.5],[1,0.5]];portConstraint=eastwest;rotatable=0;whiteSpace=wrap;html=1;" parent="_RebnMUbpeD7XwFzTjEb-119" vertex="1">
          <mxGeometry y="30" width="140" height="30" as="geometry" />
        </mxCell>
        <mxCell id="_RebnMUbpeD7XwFzTjEb-121" value="Item 2" style="text;strokeColor=none;fillColor=none;align=left;verticalAlign=middle;spacingLeft=4;spacingRight=4;overflow=hidden;points=[[0,0.5],[1,0.5]];portConstraint=eastwest;rotatable=0;whiteSpace=wrap;html=1;" parent="_RebnMUbpeD7XwFzTjEb-119" vertex="1">
          <mxGeometry y="60" width="140" height="30" as="geometry" />
        </mxCell>
        <mxCell id="_RebnMUbpeD7XwFzTjEb-122" value="Item 3" style="text;strokeColor=none;fillColor=none;align=left;verticalAlign=middle;spacingLeft=4;spacingRight=4;overflow=hidden;points=[[0,0.5],[1,0.5]];portConstraint=eastwest;rotatable=0;whiteSpace=wrap;html=1;" parent="_RebnMUbpeD7XwFzTjEb-119" vertex="1">
          <mxGeometry y="90" width="140" height="30" as="geometry" />
        </mxCell>
        <mxCell id="_RebnMUbpeD7XwFzTjEb-123" value="&lt;b&gt;Accessibility&lt;/b&gt;" style="swimlane;fontStyle=0;childLayout=stackLayout;horizontal=1;startSize=30;horizontalStack=0;resizeParent=1;resizeParentMax=0;resizeLast=0;collapsible=1;marginBottom=0;whiteSpace=wrap;html=1;" parent="1" vertex="1" collapsed="1">
          <mxGeometry x="30121" y="20958" width="186" height="30" as="geometry">
            <mxRectangle x="30430" y="21631" width="140" height="120" as="alternateBounds" />
          </mxGeometry>
        </mxCell>
        <mxCell id="_RebnMUbpeD7XwFzTjEb-124" value="Item 1" style="text;strokeColor=none;fillColor=none;align=left;verticalAlign=middle;spacingLeft=4;spacingRight=4;overflow=hidden;points=[[0,0.5],[1,0.5]];portConstraint=eastwest;rotatable=0;whiteSpace=wrap;html=1;" parent="_RebnMUbpeD7XwFzTjEb-123" vertex="1">
          <mxGeometry y="30" width="140" height="30" as="geometry" />
        </mxCell>
        <mxCell id="_RebnMUbpeD7XwFzTjEb-125" value="Item 2" style="text;strokeColor=none;fillColor=none;align=left;verticalAlign=middle;spacingLeft=4;spacingRight=4;overflow=hidden;points=[[0,0.5],[1,0.5]];portConstraint=eastwest;rotatable=0;whiteSpace=wrap;html=1;" parent="_RebnMUbpeD7XwFzTjEb-123" vertex="1">
          <mxGeometry y="60" width="140" height="30" as="geometry" />
        </mxCell>
        <mxCell id="_RebnMUbpeD7XwFzTjEb-126" value="Item 3" style="text;strokeColor=none;fillColor=none;align=left;verticalAlign=middle;spacingLeft=4;spacingRight=4;overflow=hidden;points=[[0,0.5],[1,0.5]];portConstraint=eastwest;rotatable=0;whiteSpace=wrap;html=1;" parent="_RebnMUbpeD7XwFzTjEb-123" vertex="1">
          <mxGeometry y="90" width="140" height="30" as="geometry" />
        </mxCell>
        <mxCell id="_RebnMUbpeD7XwFzTjEb-127" value="&lt;b&gt;Server-Side Rendering&lt;/b&gt;" style="swimlane;fontStyle=0;childLayout=stackLayout;horizontal=1;startSize=30;horizontalStack=0;resizeParent=1;resizeParentMax=0;resizeLast=0;collapsible=1;marginBottom=0;whiteSpace=wrap;html=1;" parent="1" vertex="1" collapsed="1">
          <mxGeometry x="30119" y="21712" width="186" height="30" as="geometry">
            <mxRectangle x="30430" y="21631" width="140" height="120" as="alternateBounds" />
          </mxGeometry>
        </mxCell>
        <mxCell id="_RebnMUbpeD7XwFzTjEb-128" value="Item 1" style="text;strokeColor=none;fillColor=none;align=left;verticalAlign=middle;spacingLeft=4;spacingRight=4;overflow=hidden;points=[[0,0.5],[1,0.5]];portConstraint=eastwest;rotatable=0;whiteSpace=wrap;html=1;" parent="_RebnMUbpeD7XwFzTjEb-127" vertex="1">
          <mxGeometry y="30" width="140" height="30" as="geometry" />
        </mxCell>
        <mxCell id="_RebnMUbpeD7XwFzTjEb-129" value="Item 2" style="text;strokeColor=none;fillColor=none;align=left;verticalAlign=middle;spacingLeft=4;spacingRight=4;overflow=hidden;points=[[0,0.5],[1,0.5]];portConstraint=eastwest;rotatable=0;whiteSpace=wrap;html=1;" parent="_RebnMUbpeD7XwFzTjEb-127" vertex="1">
          <mxGeometry y="60" width="140" height="30" as="geometry" />
        </mxCell>
        <mxCell id="_RebnMUbpeD7XwFzTjEb-130" value="Item 3" style="text;strokeColor=none;fillColor=none;align=left;verticalAlign=middle;spacingLeft=4;spacingRight=4;overflow=hidden;points=[[0,0.5],[1,0.5]];portConstraint=eastwest;rotatable=0;whiteSpace=wrap;html=1;" parent="_RebnMUbpeD7XwFzTjEb-127" vertex="1">
          <mxGeometry y="90" width="140" height="30" as="geometry" />
        </mxCell>
        <mxCell id="_RebnMUbpeD7XwFzTjEb-135" value="&lt;b&gt;&lt;font color=&quot;#ffffff&quot;&gt;API / Server-Side Pong&lt;/font&gt;&lt;/b&gt;" style="swimlane;fontStyle=0;childLayout=stackLayout;horizontal=1;startSize=30;horizontalStack=0;resizeParent=1;resizeParentMax=0;resizeLast=0;collapsible=1;marginBottom=0;whiteSpace=wrap;html=1;fillColor=#262626;" parent="1" vertex="1" collapsed="1">
          <mxGeometry x="30110.5" y="21220" width="165" height="30" as="geometry">
            <mxRectangle x="30110.5" y="21220" width="140" height="120" as="alternateBounds" />
          </mxGeometry>
        </mxCell>
        <mxCell id="_RebnMUbpeD7XwFzTjEb-136" value="Item 1" style="text;strokeColor=none;fillColor=none;align=left;verticalAlign=middle;spacingLeft=4;spacingRight=4;overflow=hidden;points=[[0,0.5],[1,0.5]];portConstraint=eastwest;rotatable=0;whiteSpace=wrap;html=1;" parent="_RebnMUbpeD7XwFzTjEb-135" vertex="1">
          <mxGeometry y="30" width="140" height="30" as="geometry" />
        </mxCell>
        <mxCell id="_RebnMUbpeD7XwFzTjEb-137" value="Item 2" style="text;strokeColor=none;fillColor=none;align=left;verticalAlign=middle;spacingLeft=4;spacingRight=4;overflow=hidden;points=[[0,0.5],[1,0.5]];portConstraint=eastwest;rotatable=0;whiteSpace=wrap;html=1;" parent="_RebnMUbpeD7XwFzTjEb-135" vertex="1">
          <mxGeometry y="60" width="140" height="30" as="geometry" />
        </mxCell>
        <mxCell id="_RebnMUbpeD7XwFzTjEb-138" value="Item 3" style="text;strokeColor=none;fillColor=none;align=left;verticalAlign=middle;spacingLeft=4;spacingRight=4;overflow=hidden;points=[[0,0.5],[1,0.5]];portConstraint=eastwest;rotatable=0;whiteSpace=wrap;html=1;" parent="_RebnMUbpeD7XwFzTjEb-135" vertex="1">
          <mxGeometry y="90" width="140" height="30" as="geometry" />
        </mxCell>
        <mxCell id="_RebnMUbpeD7XwFzTjEb-139" value="&lt;font color=&quot;#ffffff&quot;&gt;&lt;b&gt;CLI &amp;amp; API Integration&lt;/b&gt;&lt;/font&gt;" style="swimlane;fontStyle=0;childLayout=stackLayout;horizontal=1;startSize=30;horizontalStack=0;resizeParent=1;resizeParentMax=0;resizeLast=0;collapsible=1;marginBottom=0;whiteSpace=wrap;html=1;fillColor=#262626;" parent="1" vertex="1" collapsed="1">
          <mxGeometry x="30299.5" y="21220" width="165" height="30" as="geometry">
            <mxRectangle x="30299.5" y="21220" width="140" height="120" as="alternateBounds" />
          </mxGeometry>
        </mxCell>
        <mxCell id="_RebnMUbpeD7XwFzTjEb-140" value="Item 1" style="text;strokeColor=none;fillColor=none;align=left;verticalAlign=middle;spacingLeft=4;spacingRight=4;overflow=hidden;points=[[0,0.5],[1,0.5]];portConstraint=eastwest;rotatable=0;whiteSpace=wrap;html=1;" parent="_RebnMUbpeD7XwFzTjEb-139" vertex="1">
          <mxGeometry y="30" width="140" height="30" as="geometry" />
        </mxCell>
        <mxCell id="_RebnMUbpeD7XwFzTjEb-141" value="Item 2" style="text;strokeColor=none;fillColor=none;align=left;verticalAlign=middle;spacingLeft=4;spacingRight=4;overflow=hidden;points=[[0,0.5],[1,0.5]];portConstraint=eastwest;rotatable=0;whiteSpace=wrap;html=1;" parent="_RebnMUbpeD7XwFzTjEb-139" vertex="1">
          <mxGeometry y="60" width="140" height="30" as="geometry" />
        </mxCell>
        <mxCell id="_RebnMUbpeD7XwFzTjEb-142" value="Item 3" style="text;strokeColor=none;fillColor=none;align=left;verticalAlign=middle;spacingLeft=4;spacingRight=4;overflow=hidden;points=[[0,0.5],[1,0.5]];portConstraint=eastwest;rotatable=0;whiteSpace=wrap;html=1;" parent="_RebnMUbpeD7XwFzTjEb-139" vertex="1">
          <mxGeometry y="90" width="140" height="30" as="geometry" />
        </mxCell>
        <mxCell id="_RebnMUbpeD7XwFzTjEb-151" style="edgeStyle=orthogonalEdgeStyle;rounded=0;orthogonalLoop=1;jettySize=auto;html=1;entryX=0.014;entryY=0.124;entryDx=0;entryDy=0;entryPerimeter=0;exitX=1;exitY=0.5;exitDx=0;exitDy=0;" parent="1" source="_RebnMUbpeD7XwFzTjEb-43" target="_RebnMUbpeD7XwFzTjEb-39" edge="1">
          <mxGeometry relative="1" as="geometry">
            <mxPoint x="29728" y="21222" as="sourcePoint" />
          </mxGeometry>
        </mxCell>
        <mxCell id="_RebnMUbpeD7XwFzTjEb-159" style="edgeStyle=orthogonalEdgeStyle;rounded=0;orthogonalLoop=1;jettySize=auto;html=1;entryX=0.998;entryY=0.058;entryDx=0;entryDy=0;entryPerimeter=0;" parent="1" source="_RebnMUbpeD7XwFzTjEb-55" target="_RebnMUbpeD7XwFzTjEb-31" edge="1">
          <mxGeometry relative="1" as="geometry" />
        </mxCell>
        <mxCell id="zLm2Q9h4xRQoBPKhVe6s-2" value="" style="shape=cylinder3;whiteSpace=wrap;html=1;boundedLbl=1;backgroundOutline=1;size=15;" parent="1" vertex="1">
          <mxGeometry x="30552" y="22149" width="60" height="80" as="geometry" />
        </mxCell>
        <mxCell id="GSjYGcbKK9BM40WnQwez-1" style="edgeStyle=orthogonalEdgeStyle;rounded=0;orthogonalLoop=1;jettySize=auto;html=1;exitX=0;exitY=0.5;exitDx=0;exitDy=0;entryX=1.002;entryY=0.139;entryDx=0;entryDy=0;entryPerimeter=0;startArrow=classic;startFill=1;" edge="1" parent="1" source="_RebnMUbpeD7XwFzTjEb-107" target="_RebnMUbpeD7XwFzTjEb-18">
          <mxGeometry relative="1" as="geometry" />
        </mxCell>
        <mxCell id="GSjYGcbKK9BM40WnQwez-2" style="edgeStyle=orthogonalEdgeStyle;rounded=0;orthogonalLoop=1;jettySize=auto;html=1;entryX=0.021;entryY=0.053;entryDx=0;entryDy=0;entryPerimeter=0;" edge="1" parent="1" source="_RebnMUbpeD7XwFzTjEb-35" target="_RebnMUbpeD7XwFzTjEb-31">
          <mxGeometry relative="1" as="geometry" />
        </mxCell>
        <mxCell id="GSjYGcbKK9BM40WnQwez-8" value="" style="shape=flexArrow;endArrow=classic;html=1;rounded=0;endWidth=131.42857142857142;endSize=44.771428571428565;width=137.14285714285714;" edge="1" parent="1">
          <mxGeometry width="50" height="50" relative="1" as="geometry">
            <mxPoint x="30843" y="22421" as="sourcePoint" />
            <mxPoint x="30843" y="20486" as="targetPoint" />
          </mxGeometry>
        </mxCell>
        <mxCell id="GSjYGcbKK9BM40WnQwez-13" value="" style="verticalLabelPosition=bottom;html=1;verticalAlign=top;align=center;strokeColor=none;fillColor=#00BEF2;shape=mxgraph.azure.computer;pointerEvents=1;" vertex="1" parent="1">
          <mxGeometry x="30550" y="20593" width="60" height="60" as="geometry" />
        </mxCell>
        <mxCell id="GSjYGcbKK9BM40WnQwez-14" value="" style="html=1;verticalLabelPosition=bottom;align=center;labelBackgroundColor=#ffffff;verticalAlign=top;strokeWidth=2;strokeColor=#F002B9;shadow=0;dashed=0;shape=mxgraph.ios7.icons.controls;fillColor=none;" vertex="1" parent="1">
          <mxGeometry x="30553" y="21579" width="60" height="60" as="geometry" />
        </mxCell>
        <mxCell id="GSjYGcbKK9BM40WnQwez-24" value="" style="group;aspect=fixed;strokeWidth=8;" vertex="1" connectable="0" parent="1">
          <mxGeometry x="30553" y="21165.5" width="60" height="15" as="geometry" />
        </mxCell>
        <mxCell id="GSjYGcbKK9BM40WnQwez-20" value="" style="rounded=0;orthogonalLoop=1;jettySize=auto;html=1;endArrow=halfCircle;endFill=0;endSize=6;strokeWidth=1;sketch=0;" edge="1" target="GSjYGcbKK9BM40WnQwez-22" parent="GSjYGcbKK9BM40WnQwez-24">
          <mxGeometry relative="1" as="geometry">
            <mxPoint x="60" y="7.5" as="sourcePoint" />
          </mxGeometry>
        </mxCell>
        <mxCell id="GSjYGcbKK9BM40WnQwez-21" value="" style="rounded=0;orthogonalLoop=1;jettySize=auto;html=1;endArrow=oval;endFill=0;sketch=0;sourcePerimeterSpacing=0;targetPerimeterSpacing=0;endSize=10;" edge="1" target="GSjYGcbKK9BM40WnQwez-22" parent="GSjYGcbKK9BM40WnQwez-24">
          <mxGeometry relative="1" as="geometry">
            <mxPoint y="7.5" as="sourcePoint" />
          </mxGeometry>
        </mxCell>
        <mxCell id="GSjYGcbKK9BM40WnQwez-22" value="" style="ellipse;whiteSpace=wrap;html=1;align=center;aspect=fixed;fillColor=none;strokeColor=none;resizable=0;perimeter=centerPerimeter;rotatable=0;allowArrows=0;points=[];outlineConnect=1;" vertex="1" parent="GSjYGcbKK9BM40WnQwez-24">
          <mxGeometry x="22.5" width="10" height="10" as="geometry" />
        </mxCell>
      </root>
    </mxGraphModel>
  </diagram>
</mxfile>
